<?xml version="1.0" encoding="UTF-8"?><svg id="Layer_1" xmlns="http://www.w3.org/2000/svg" viewBox="0 0 642.79 549.63"><defs><style>.cls-1{fill:#f0b6a8;}.cls-1,.cls-2,.cls-3{stroke-width:0px;}.cls-2{fill:#262223;}.cls-3{fill:#fefefe;}</style></defs><path class="cls-2" d="M0,19.16C4.99,7.06,10.65,3.47,25.11,4.27c37.51,2.09,72.87,12.2,106.21,29.4,24.64,12.71,46.79,28.72,64.64,50.2,1.85,2.23,3.36,2.63,5.82.85,27.93-20.18,59.46-31.74,93.29-36.19,51.02-6.7,99.66.85,144.21,28.19,2.63,1.62,5.42,3.16,7.6,5.29,3.8,3.73,5.48,2.24,8.05-1.62,13.38-20.1,32.02-34.52,52.14-47.27,24.83-15.75,51.73-26.31,80.61-31.61,12.18-2.23,24.47-2.01,36.64.72,9,2.02,16.4,5.89,18.49,15.93v5c-1.46,6.52-2.57,13.15-4.48,19.53-2.7,9.05-5.76,18.02-9.07,26.87-5.83,15.59-8.5,31.56-8.58,48.25-.09,19.59-4.59,38.26-15.7,54.81-15.53,23.13-37.32,36.9-64.46,42.47-2.92.6-5.84,1.71-8.76,1.71-5.14,0-5.52,2.91-5.99,7.02-2.34,20.2,4.28,38.34,12.39,56.14,9.08,19.94,15.07,40.76,17.47,62.5,2.29,20.72.28,41.18-5.57,61.2-18.45,63.1-61.25,103.3-120.87,127.08-28.22,11.26-57.78,17-88.22,18.47-41.4,2-81.58-3.52-120.01-19.2-40.23-16.42-73.05-42.24-95.81-79.69-13.6-22.38-21.93-46.79-25.18-72.84-3.87-31.03.77-61.21,9.42-90.94,4.22-14.5,8.31-28.99,9.37-44.15.25-3.57.74-6.06-4.39-7-14.76-2.72-28.76-7.8-41.7-15.67-24.68-15-37.97-37.26-42.76-65.33-2.25-13.18-1.85-26.48-2.61-39.72-1.23-21.39-6.35-41.58-16.22-60.54C6.07,44.61,2.49,34.6,0,24.16v-5ZM325.02,541.85c24.05.14,49.78-3.1,76.02-10.12,48.73-13.03,89.96-37.68,118.51-80.17,22.35-33.27,32.07-70.23,27.7-110.51-2.71-25.01-11.56-48.1-21.37-70.95-6.54-15.23-9.8-31.05-7.32-47.69,1.68-11.28,4.32-13.22,14.83-14.19,41.85-3.88,75.48-36.52,78.22-78.3,1.88-28.57,6.51-56.05,17.59-82.49,3.54-8.46,4.66-17.67,5.26-26.85.28-4.25-.88-7.63-5.28-9.06-2.94-.96-5.9-1.95-8.92-2.53-12.45-2.37-24.98-2.12-37.19.93-51.52,12.86-96.49,36.04-126.63,81.98-2.1,3.2-3.93,3.76-7.09,1.22-8.06-6.49-16.73-12.08-25.93-16.83-21.67-11.18-44.84-16.99-68.92-20.24-20.47-2.76-40.78-2.59-61.08.57-33.61,5.22-64.62,16.96-91.83,37.78-3.27,2.5-5.32,2.03-7.8-1.1-7.26-9.13-14.89-17.94-23.97-25.38C135.88,40.09,96.8,23.47,54,15.08c-11.95-2.34-24.05-3.71-36.26-2.99-7.68.45-10.36,3.68-9.83,11.22.27,3.86,1.08,7.62,2.57,11.15,3.43,8.12,6.81,16.28,10.66,24.2,8.09,16.64,11.94,34.37,13.75,52.58.92,9.26.84,18.63,1.23,27.94.8,19.12,4.92,37.29,16.77,52.79,17.22,22.52,40.9,33.4,68.52,36.34,4.15.44,5.04,1.84,4.82,5.35-.36,5.98-.43,11.98-.95,17.95-1.35,15.39-6.97,29.77-10.83,44.56-9.89,37.81-11.95,75.55.52,113.24,15.45,46.72,45.37,81.3,88.66,104.16,37.89,20,78.81,27.96,121.4,28.28Z"/><path class="cls-1" d="M325.02,541.85c-42.59-.32-83.51-8.27-121.4-28.28-43.29-22.85-73.21-57.44-88.66-104.16-12.46-37.69-10.4-75.43-.52-113.24,3.87-14.79,9.49-29.17,10.83-44.56.52-5.97.59-11.97.95-17.95.21-3.52-.68-4.91-4.82-5.35-27.62-2.94-51.3-13.82-68.52-36.34-11.86-15.5-15.97-33.67-16.77-52.79-.39-9.32-.31-18.68-1.23-27.94-1.81-18.21-5.66-35.94-13.75-52.58-3.85-7.92-7.23-16.08-10.66-24.2-1.49-3.53-2.3-7.29-2.57-11.15-.52-7.53,2.15-10.77,9.83-11.22,12.21-.72,24.31.65,36.26,2.99,42.8,8.39,81.87,25.01,115.83,52.84,9.08,7.44,16.71,16.24,23.97,25.38,2.49,3.13,4.53,3.6,7.8,1.1,27.21-20.82,58.21-32.56,91.83-37.78,20.31-3.15,40.61-3.32,61.08-.57,24.08,3.24,47.24,9.06,68.92,20.24,9.21,4.75,17.88,10.35,25.93,16.83,3.16,2.54,4.99,1.98,7.09-1.22,30.14-45.93,75.11-69.11,126.63-81.98,12.21-3.05,24.74-3.3,37.19-.93,3.03.58,5.98,1.57,8.92,2.53,4.39,1.43,5.55,4.81,5.28,9.06-.6,9.18-1.72,18.39-5.26,26.85-11.07,26.44-15.71,53.92-17.59,82.49-2.75,41.78-36.38,74.43-78.22,78.3-10.51.97-13.15,2.91-14.83,14.19-2.48,16.65.78,32.47,7.32,47.69,9.81,22.85,18.66,45.94,21.37,70.95,4.37,40.28-5.35,77.23-27.7,110.51-28.55,42.49-69.78,67.14-118.51,80.17-26.24,7.02-51.97,10.26-76.02,10.12ZM206.9,427.01c.15.42.3.84.45,1.26.16-.16.31-.32.47-.47-.34-.23-.67-.46-1.01-.68-.32-1.1-.5-2.26-.98-3.29-5.82-12.5-7.86-25.67-6.93-39.34.21-3.15.72-6.29,1.1-9.43-5.88,15.03-2.9,35.87,6.91,51.96ZM442.83,367.51c-.46-22.68-10.85-45.24-31.52-62.87-38.8-33.08-82.46-40.26-129.57-21.87-28.19,11.01-50.27,29.71-61,59.37-4.72,13.03-6.95,26.38-4.99,40.21,4.33,30.62,22.47,49.86,50.48,60.82,1.86.73,2.92,1.57,3.53,3.59,5.69,18.86,18.18,31.41,36.4,38.36,35.01,13.35,70.19-7.12,78.36-38.19.67-2.54,2.26-2.45,3.88-2.97,33.71-10.9,54.33-38.17,54.44-76.46ZM122.95,130.62c12.03-8.03,28.98,1.86,30.01,16.8.74,10.77-1.39,20.85-7.58,29.88-3.39,4.94-6.81,9.86-10.1,14.87-2.46,3.76-4.57,7.73-5.83,12.09-.39,1.34-.05,2.3,1.06,2.99,1,.62,1.49-.11,1.9-.88,3.72-7.04,9.75-12.18,14.89-18.04,7.45-8.51,11.92-18.33,13.78-29.43,2.66-15.86-1.98-31-4.62-46.3-1.02-5.9-3.53-11.42-6.51-16.67-17.28-30.46-43.91-48.83-76.59-59.44-1.66-.54-3.3-.85-5.05.05,38.64,18.66,71.31,42.62,83.17,87.63-14.52-6.86-24.77-4.54-28.52,6.44ZM499.51,122.26c4.19-22.29,13.7-40.98,29.02-56.61,15.11-15.41,32.73-27.38,52.73-36.78-2.05-1.04-3.13-.5-4.24-.18-10.96,3.12-21.27,7.81-30.88,13.81-36.63,22.85-56.85,55.1-56.07,99.17.19,10.71,2.32,20.74,8.95,29.55,7.17,9.51,16.21,17.61,21.31,29.51,2.02-2.98,1.67-5.21,1.06-7.45-2.02-7.35-6.16-13.6-10.54-19.68-3.11-4.33-6.45-8.55-8.42-13.52-5.25-13.23-3.85-24.88,6-33.25,5.88-5,12.24-6.81,19.36-1.9-1.47-10.82-13.34-12-28.28-2.68ZM442.52,272.39c13.53.15,25.28-10.41,25.41-22.85.15-14.21-11.45-26.12-25.71-26.41-12.54-.25-23.16,11.38-23.31,25.53-.14,13.26,10.13,23.58,23.61,23.73ZM233.07,250.67c0-14.49-10.07-25.75-22.96-25.68-13.62.07-25.74,12.47-25.82,26.59-.07,11.85,9.79,22.73,24.5,22.99,13.32.23,24.29-10.68,24.29-23.9ZM293.82,499.27c24.58,25.52,69.28,14.14,84.27-8-27.1,17.21-54.66,18.91-84.27,8ZM173.88,227.38c13.45-19.31,29.82-26.08,52.14-14.7-7.98-11.49-21.02-14.23-30.85-10.98-9.42,3.12-21.74,16.95-21.29,25.68ZM479.57,221.72c-7-11.49-13.32-23.56-28.75-24.24-8.16-.36-19.86,5.82-22.7,12.34,21.33-11.99,37.31-4.05,51.44,11.9ZM461.02,289.51c-10.84,1.76-20.2-1.76-28.89-8.09-3.49-2.54-7.25-4.7-10.96-6.92-1.41-.84-2.88-2.08-5.13-.86,7.33,3.51,12.59,9.4,19.11,13.55,8.2,5.22,16.76,6.18,25.87,2.32ZM191.42,292.06c8.26,3.11,16.3,3.09,23.96-1.04,8.34-4.5,14.29-12.3,22.85-16.59-3.67-.02-6.25,2.12-8.93,3.96-11.41,7.84-22.54,16.4-37.88,13.67ZM457.73,364.39c5.3,18.61,6.09,37.21-.36,55.82,8.63-18.54,7.15-37.16.36-55.82ZM517.61,166.29c3.99-3.57,6.96-7.8,8.84-12.73-3.53,3.86-7.55,7.37-8.84,12.73ZM119.43,165.25c2.49,3.74,5.26,7.16,9.72,8.56-2.72-3.47-5.46-6.92-9.72-8.56Z"/><path class="cls-2" d="M442.83,367.51c-.11,38.29-20.73,65.56-54.44,76.46-1.61.52-3.21.43-3.88,2.97-8.16,31.07-43.35,51.55-78.36,38.19-18.22-6.95-30.71-19.5-36.4-38.36-.61-2.02-1.67-2.86-3.53-3.59-28.01-10.97-46.15-30.2-50.48-60.82-1.96-13.84.27-27.18,4.99-40.21,10.73-29.66,32.81-48.36,61-59.37,47.11-18.39,90.77-11.21,129.57,21.87,20.68,17.63,31.06,40.18,31.52,62.87ZM337.06,281.73c-28.15-.04-46.91,4.57-64.19,14.41-24.92,14.19-43.42,33.59-48.42,63.04-4.48,26.39,3.7,48.54,24.49,65.29,18.83,15.18,50.25,19.05,75.62-1.26,2.11-1.69,3.61-2.8,6.23-.32,23.83,22.58,62.54,18.02,85.54-5.52,22.19-22.72,23.82-56.75,8.21-83.28-21.25-36.12-55.11-50.81-87.48-52.37ZM278.07,446.05c6.62,21.09,29.88,36.15,53.19,34.73,21.79-1.33,41.18-16.15,44.41-34.24-4.52.63-8.99.94-13.41.25-3.08-.48-5.37-.86-6.66,3.14-.94,2.91-3.7,5.04-6.24,7-15.08,11.6-36.39,8.29-47.67-7.4-1.28-1.78-1.99-4.16-5.22-3.52-6.05,1.21-12.18,1.37-18.41.04ZM306.28,444.44c14.49,18.11,38.45,12.73,45.96.88-7.8-2.44-15.3-5.53-21.77-10.64-2.14-1.7-3.66-1.93-6.02-.17-5.46,4.08-11.7,6.88-18.18,9.93Z"/><path class="cls-2" d="M122.95,130.62c3.75-10.98,14-13.29,28.52-6.44-11.86-45.01-44.52-68.98-83.17-87.63,1.75-.91,3.38-.59,5.05-.05,32.68,10.6,59.32,28.98,76.59,59.44,2.98,5.25,5.49,10.77,6.51,16.67,2.64,15.31,7.28,30.45,4.62,46.3-1.86,11.1-6.32,20.93-13.78,29.43-5.14,5.86-11.17,11-14.89,18.04-.41.77-.89,1.5-1.9.88-1.11-.69-1.45-1.65-1.06-2.99,1.26-4.37,3.37-8.33,5.83-12.09,3.28-5.01,6.71-9.93,10.1-14.87,6.19-9.04,8.32-19.12,7.58-29.88-1.03-14.94-17.97-24.83-30.01-16.8Z"/><path class="cls-2" d="M499.51,122.26c14.94-9.33,26.82-8.15,28.28,2.68-7.12-4.91-13.48-3.1-19.36,1.9-9.85,8.37-11.26,20.03-6,33.25,1.97,4.97,5.31,9.19,8.42,13.52,4.37,6.08,8.52,12.32,10.54,19.68.61,2.24.97,4.47-1.06,7.45-5.1-11.9-14.15-20-21.31-29.51-6.63-8.81-8.76-18.84-8.95-29.55-.78-44.08,19.44-76.32,56.07-99.17,9.61-5.99,19.92-10.69,30.88-13.81,1.12-.32,2.19-.85,4.24.18-20,9.4-37.62,21.37-52.73,36.78-15.32,15.63-24.83,34.32-29.02,56.61Z"/><path class="cls-2" d="M442.52,272.39c-13.48-.15-23.75-10.47-23.61-23.73.15-14.15,10.77-25.78,23.31-25.53,14.26.29,25.86,12.2,25.71,26.41-.13,12.43-11.87,22.99-25.41,22.85ZM460.51,247.48c-7.2,13.37-17.17,17.99-31.53,10.35,5.81,6.12,12.32,8.25,19.73,5.27,6.92-2.79,11.32-7.87,11.8-15.62ZM425.08,240.38c-.14,1.65,0,3.43,1.85,3.55,2.49.16,2.52-2.16,2.84-3.87.32-1.7-.29-2.98-2.24-3.09-2.62-.15-1.97,2.09-2.46,3.41Z"/><path class="cls-2" d="M233.07,250.67c0,13.22-10.96,24.13-24.29,23.9-14.71-.26-24.57-11.15-24.5-22.99.08-14.12,12.2-26.52,25.82-26.59,12.89-.07,22.96,11.2,22.96,25.68ZM214.2,239.4c-.14,4.7,2.92,8.34,6.61,8.45,3.3.1,6.43-3.18,6.5-6.8.07-3.87-3.39-7.87-6.96-7.63-3.9.26-5.67,2.89-6.14,5.97ZM198.32,263.05c11.6,6.65,26,.08,28.41-9.78-3.63,4.48-7.31,7.8-12.01,9.74-5.02,2.07-10.13.21-16.41.04Z"/><path class="cls-2" d="M293.82,499.27c29.61,10.91,57.17,9.2,84.27-8-14.99,22.14-59.69,33.53-84.27,8Z"/><path class="cls-2" d="M173.88,227.38c-.45-8.73,11.87-22.57,21.29-25.68,9.83-3.25,22.87-.51,30.85,10.98-22.33-11.38-38.7-4.61-52.14,14.7Z"/><path class="cls-2" d="M479.57,221.72c-14.13-15.95-30.11-23.89-51.44-11.9,2.84-6.52,14.54-12.7,22.7-12.34,15.42.68,21.74,12.75,28.75,24.24Z"/><path class="cls-2" d="M461.02,289.51c-9.12,3.86-17.67,2.9-25.87-2.32-6.53-4.15-11.78-10.04-19.11-13.55,2.25-1.22,3.72.03,5.13.86,3.71,2.21,7.47,4.38,10.96,6.92,8.69,6.32,18.05,9.84,28.89,8.09Z"/><path class="cls-2" d="M191.42,292.06c15.34,2.73,26.47-5.83,37.88-13.67,2.68-1.84,5.27-3.98,8.93-3.96-8.56,4.29-14.51,12.08-22.85,16.59-7.66,4.14-15.7,4.15-23.96,1.04Z"/><path class="cls-2" d="M457.73,364.39c6.79,18.66,8.27,37.27-.36,55.82,6.45-18.6,5.66-37.21.36-55.82Z"/><path class="cls-2" d="M206.89,427.02c-9.81-16.09-12.79-36.93-6.91-51.96-.37,3.14-.88,6.28-1.1,9.43-.92,13.67,1.11,26.84,6.93,39.34.48,1.03.66,2.19.98,3.29l.09-.1Z"/><path class="cls-2" d="M517.61,166.29c1.29-5.36,5.31-8.87,8.84-12.73-1.88,4.93-4.85,9.16-8.84,12.73Z"/><path class="cls-2" d="M119.43,165.25c4.26,1.64,7,5.09,9.72,8.56-4.46-1.41-7.22-4.82-9.72-8.56Z"/><path class="cls-2" d="M206.81,427.11c.34.23.67.46,1.01.68-.16.16-.31.32-.47.47-.15-.42-.3-.84-.45-1.26,0,0-.09.1-.09.1Z"/><path class="cls-1" d="M337.06,281.73c32.37,1.55,66.23,16.24,87.48,52.37,15.61,26.54,13.98,60.56-8.21,83.28-22.99,23.54-61.71,28.1-85.54,5.52-2.62-2.48-4.12-1.37-6.23.32-25.37,20.3-56.79,16.44-75.62,1.26-20.79-16.76-28.97-38.91-24.49-65.29,5-29.45,23.49-48.85,48.42-63.04,17.28-9.84,36.04-14.45,64.19-14.41ZM382.97,375.63c.08-12.25-8.98-22.92-21.01-25.99-7.95-2.03-14.63,2.83-14.5,11.02.14,9.47,3.23,17.94,10.15,24.71,4.57,4.47,9.85,7.25,16.21,4.48,6.53-2.85,8.63-8.78,9.15-14.22ZM308.02,362.08c.08-9.39-5.17-13.73-13.52-12.01-10.34,2.13-20.02,12.21-21.56,22.44-1.04,6.92,2.55,14.16,8.52,17.17,5.62,2.84,11.43,1.24,16.89-4.51,6.38-6.72,8.74-15.02,9.66-23.1Z"/><path class="cls-1" d="M278.07,446.05c6.23,1.34,12.36,1.17,18.41-.04,3.22-.64,3.94,1.73,5.22,3.52,11.28,15.69,32.59,19,47.67,7.4,2.54-1.95,5.3-4.08,6.24-7,1.29-4,3.58-3.62,6.66-3.14,4.42.69,8.89.38,13.41-.25-3.23,18.09-22.62,32.9-44.41,34.24-23.32,1.43-46.57-13.64-53.19-34.73Z"/><path class="cls-1" d="M306.28,444.44c6.47-3.05,12.71-5.86,18.18-9.93,2.36-1.76,3.87-1.53,6.02.17,6.47,5.11,13.97,8.21,21.77,10.64-7.51,11.85-31.47,17.24-45.96-.88Z"/><path class="cls-1" d="M425.08,240.38c.49-1.33-.16-3.56,2.46-3.41,1.94.11,2.55,1.39,2.24,3.09-.32,1.71-.36,4.03-2.84,3.87-1.85-.12-1.99-1.89-1.85-3.55Z"/><path class="cls-3" d="M214.2,239.4c.48-3.08,2.24-5.72,6.14-5.97,3.57-.23,7.04,3.76,6.96,7.63-.07,3.62-3.2,6.9-6.5,6.8-3.68-.11-6.74-3.75-6.61-8.45Z"/><path class="cls-1" d="M198.32,263.05c6.28.17,11.39,2.03,16.41-.04,4.7-1.94,8.37-5.26,12.01-9.74-2.42,9.86-16.81,16.43-28.41,9.78Z"/><path class="cls-2" d="M382.97,375.63c-.53,5.44-2.62,11.37-9.15,14.22-6.36,2.77-11.64,0-16.21-4.48-6.92-6.77-10.01-15.24-10.15-24.71-.12-8.19,6.55-13.05,14.5-11.02,12.04,3.07,21.09,13.74,21.01,25.99Z"/><path class="cls-2" d="M308.02,362.08c-.92,8.08-3.29,16.38-9.66,23.1-5.46,5.75-11.27,7.35-16.89,4.51-5.97-3.02-9.56-10.26-8.52-17.17,1.54-10.23,11.22-20.31,21.56-22.44,8.35-1.72,13.6,2.62,13.52,12.01Z"/></svg>